<svg class="icon" viewBox="0 0 51 60" fill="none" xmlns="http://www.w3.org/2000/svg">
                        <path d="M45.9244 18.4679C44.7062 14.5342 41.4578 11.5942 37.4785 10.8489C36.301 10.6004 35.0828 10.4762 33.8646 10.4762H32.9307L50.9594 0L50.8376 17.1843V20.1242C50.8376 20.4555 50.7564 20.7039 50.797 21.0352C50.6346 32.381 44.2189 39.1718 37.7627 40.8282C44.9498 35.9834 48.3201 25.7143 45.9244 18.4679Z" fill="#333333"></path>
                        <path d="M22.617 27.8675C23.4697 42.0704 41.7014 54.7826 50.3909 39.6273L50.797 38.882L50.7158 57.971V60L33.6616 49.7309L33.0119 49.1926C30.0884 47.4948 27.5709 45.176 25.5812 42.4017C22.4952 38.2609 21.3989 32.9193 22.617 27.8675Z" fill="#333333"></path>
                        <path d="M0 29.6066L17.1353 19.6687C21.7643 16.6046 27.3678 15.4451 32.7683 16.3975C35.9761 16.9772 38.8997 18.5507 41.2142 20.911C37.8846 19.2961 34.1895 18.6335 30.535 19.0476C20.9928 19.9586 12.5064 27.205 16.2826 37.1429C16.6075 37.971 16.9729 38.7578 17.379 39.5445L17.8256 40.2485L14.9833 38.5507L0 29.5652V29.6066Z" fill="#333333"></path>
                    </svg>