<svg viewBox="0 0 63 63" fill="none" xmlns="http://www.w3.org/2000/svg">
                                        <path d="M63 31.5C63 48.897 48.897 63 31.5 63C14.103 63 0 48.897 0 31.5C0 14.103 14.103 0 31.5 0C48.897 0 63 14.103 63 31.5Z" fill="black"></path>
                                        <path d="M42.6289 12.6007L20.746 14.6962L21.3355 20.8521L25.0383 20.4975C28.1229 20.2022 30.9596 18.6944 32.9311 16.3052L33.0537 16.1567C33.9536 15.0663 35.5669 14.9118 36.6573 15.8116C37.726 16.6935 37.8926 18.259 37.0526 19.3471L37.0592 19.3464L12.816 48.7244L17.5852 52.66L31.8824 35.3347C31.9177 35.2846 31.9529 35.2345 31.9933 35.1856L41.7106 23.4101C42.6074 22.3233 44.2286 22.093 45.3318 22.97C46.435 23.8469 46.6252 25.5019 45.7149 26.605L45.6192 26.7209C43.6477 29.11 42.706 32.1846 43.001 35.2659L43.3613 39.0282L49.519 38.4402L47.4213 16.5342L47.382 16.2276C47.1005 14.0376 45.1678 12.4427 42.9641 12.582L42.6308 12.6022L42.6289 12.6007Z" fill="white"></path>
                                    </svg>