<?xml version="1.0" encoding="utf-8"?>
<svg width="160" height="29" viewBox="0 0 160 29" fill="none" xmlns="http://www.w3.org/2000/svg">
<g clip-path="url(#clip0_89_1464)">
<path d="M13.631 19.3274C13.182 18.5912 13.1731 17.6677 13.6044 16.9226C13.7288 16.6951 13.88 16.4854 14.0489 16.2891L14.1823 16.1418L11.9594 16.9226L10.0166 17.6097L12.7419 19.952L13.2087 20.3535C13.2576 20.3982 13.3065 20.4249 13.3554 20.4695C15.1693 21.9998 17.1343 21.8972 18.2902 21.0808C16.5253 21.576 14.4402 20.7105 13.631 19.3274Z" fill="#757374"/>
<path d="M18.3607 16.8557C20.4769 18.9437 19.939 23.6194 16.3423 22.9457L16.1689 22.9056L19.1921 25.5111L19.5166 25.7877L20.2724 21.6385V21.46C20.4102 20.7551 20.3969 20.0323 20.2369 19.3319C20.019 18.2656 19.3255 17.3554 18.3607 16.8557Z" fill="#757374"/>
<path d="M21.784 13.4515L17.8317 14.8479C16.7069 15.1736 15.7422 15.9143 15.1375 16.9226C14.7819 17.5159 14.6218 18.2075 14.6707 18.899C14.8797 18.1406 15.2931 17.4579 15.8666 16.9226C17.3426 15.5127 19.6634 15.1379 20.7081 17.1055C20.7926 17.2661 20.8682 17.4356 20.9304 17.6096L20.9838 17.7792L21.1127 17.0876L21.784 13.447V13.4515Z" fill="#757374"/>
<path d="M14.2578 28.5983H18.6725L18.9926 26.778L15.1603 23.481L14.2578 28.5983Z" fill="#EB2027"/>
<path d="M46.3212 8.61977L46.6235 6.88869C47.3882 2.53869 45.7922 0.401611 41.2219 0.401611H34.6777L29.7295 28.5986H34.1397L36.2648 16.5078H37.7897C39.7948 16.5078 40.4128 17.351 39.9504 19.9699L39.0612 25.1275C38.6611 27.4207 38.7411 27.8669 38.8567 28.5896H43.347C43.0936 27.5412 43.2269 26.5373 43.467 25.1676L44.3562 20.2109C44.9163 17.0298 44.5607 14.9373 42.4756 14.2502V14.1699C44.5607 13.3847 45.7922 11.5198 46.3212 8.61977ZM42.1333 7.33039L41.7509 9.50762C41.3464 11.7607 40.2216 12.4924 38.5766 12.4924H36.9717L38.3899 4.43038H40.395C41.9599 4.43038 42.4889 5.31823 42.1333 7.33039Z" fill="#EB2027"/>
<path d="M57.1327 0C52.7981 0 49.9794 2.57877 49.1881 7.08939L46.5829 21.9151C45.7915 26.4257 47.7032 29 52.0379 29C56.3725 29 59.1911 26.4257 59.9869 21.9151L62.5877 7.08939C63.3835 2.57877 61.4674 0 57.1327 0ZM58.2397 6.80831L55.5367 22.1962C55.181 24.2083 54.1629 24.9757 52.7581 24.9757C51.3532 24.9757 50.6063 24.2083 50.9797 22.1962L53.6828 6.80831C54.034 4.79169 55.0521 4.02877 56.457 4.02877C57.8618 4.02877 58.5776 4.79169 58.2397 6.80831Z" fill="#EB2027"/>
<path d="M78.375 7.37054C79.1708 2.85992 77.4325 0.401611 73.0178 0.401611H66.5181L61.5654 28.5986H65.9801L67.9941 17.119H70.0836C74.4983 17.119 77.0946 14.6607 77.8904 10.1501L78.375 7.37054ZM74.0137 7.08946L73.4268 10.4312C73.0712 12.4478 72.1953 13.1081 70.7905 13.1081H68.7054L70.2436 4.43038H72.3287C73.7158 4.43038 74.3649 5.07731 74.0137 7.08946Z" fill="#EB2027"/>
<path d="M89.7339 15.9099L90.4452 11.8812H84.3856L85.6926 4.43038H93.3172L94.0241 0.401611H81.9848L77.0322 28.5986H89.0715L89.7783 24.5698H82.1538L83.6787 15.9099H89.7339Z" fill="#EB2027"/>
<path d="M100.826 0.401611H96.4116L91.459 28.5986H103.134L103.841 24.5698H96.5806L100.826 0.401611Z" fill="#EB2027"/>
<path d="M114.768 0.401611H110.358L105.405 28.5986H117.08L117.787 24.5698H110.522L114.768 0.401611Z" fill="#EB2027"/>
<path d="M132.054 15.9099L132.761 11.8812H126.701L128.008 4.43038H135.633L136.34 0.401611H124.305L119.348 28.5986H131.387L132.098 24.5698H124.474L125.994 15.9099H132.054Z" fill="#EB2027"/>
<path d="M145.471 0.401611H138.709L133.774 28.5986H140.514C144.929 28.5986 147.53 26.1402 148.321 21.6296L150.829 7.35269C151.602 2.85992 149.886 0.401611 145.471 0.401611ZM146.449 7.16977L143.871 21.8304C143.515 23.847 142.537 24.5698 141.146 24.5698H138.896L142.453 4.43038H144.702C146.085 4.43038 146.801 5.15762 146.449 7.16977Z" fill="#EB2027"/>
<path d="M158.857 0.374756L157.937 2.89106L157.892 0.374756H156.745L156.052 4.3366H156.728L157.261 1.3206L157.363 4.3366H157.941L159.102 1.3206L158.568 4.3366H159.302L160 0.374756H158.857Z" fill="#EB2027"/>
<path d="M156.283 0.374756H153.887L153.763 1.08414H154.572L154.003 4.3366H154.776L155.35 1.08414H156.159L156.283 0.374756Z" fill="#EB2027"/>
<path d="M31.0717 7.37053C31.8631 2.85992 30.1292 0.401611 25.7146 0.401611H19.2148L17.6899 9.06592C17.4765 8.6153 17.2097 8.19146 16.8941 7.8033C15.6181 6.273 13.622 5.46546 11.1145 5.46546C5.4417 5.46546 1.38268 9.30684 0.253447 15.727C-0.355628 19.207 0.13341 22.0133 1.67166 23.8515C2.96094 25.3907 4.96155 26.2071 7.4512 26.2071C10.2209 26.2116 12.8795 25.1319 14.8668 23.2001L11.9014 20.6525C10.9856 21.643 9.69189 22.1962 8.34481 22.1739C7.06442 22.1739 6.12191 21.8036 5.48171 21.0764C4.76594 20.2421 4.51253 18.9081 4.73926 17.2127H7.91356L10.1053 16.4319L20.9931 12.5682L21.5222 12.3764L22.9181 4.43484H25.0077C26.4125 4.43484 27.0616 5.08177 26.706 7.11177L26.1191 10.4535C25.7635 12.4701 24.8876 13.1304 23.4872 13.1304H22.9626L22.7759 14.1342L22.229 17.119H22.7892C27.2039 17.119 29.8047 14.6607 30.596 10.1501L31.0717 7.37053ZM5.5973 13.0412C6.48646 10.681 8.13585 9.43177 10.4077 9.43177C11.6703 9.43177 12.6083 9.78423 13.1996 10.4758C13.742 11.2119 13.9865 12.131 13.8887 13.0412H5.5973Z" fill="#EB2027"/>
</g>
<defs>
<clipPath id="clip0_89_1464">
<rect width="160" height="29" fill="white"/>
</clipPath>
</defs>
</svg>
