<svg class="navOpen" width="30" height="35" viewBox="0 0 30 18" fill="none" xmlns="http://www.w3.org/2000/svg">
                        <path d="M14.8399 9.81102C10.3672 9.81102 5.89567 9.81102 1.42298 9.81102C1.26502 9.81102 1.10589 9.81909 0.949079 9.80294C0.400227 9.7476 -0.00795373 9.29214 0.000117634 8.75713C0.00934205 8.23825 0.409451 7.80355 0.939855 7.74705C1.08168 7.73206 1.22696 7.73898 1.3711 7.73898C10.3591 7.73898 19.346 7.73898 28.3341 7.73898C28.4494 7.73898 28.5647 7.73552 28.6788 7.74244C29.2588 7.77934 29.6877 8.21634 29.69 8.76981C29.6924 9.32327 29.2657 9.7672 28.6869 9.8064C28.5439 9.81563 28.3998 9.81102 28.2557 9.81102C23.783 9.81102 19.3114 9.81102 14.8387 9.81102H14.8399Z" fill="#2A2A2A"></path>
                        <path d="M7.94205 0.00193446C10.1271 0.00193446 12.311 0.00193446 14.496 0.00193446C14.654 0.00193446 14.8131 -0.00267775 14.9699 0.013465C15.4473 0.0630462 15.8162 0.436635 15.8727 0.913999C15.9269 1.37868 15.6433 1.85604 15.1924 1.9921C14.9768 2.05667 14.7393 2.07051 14.5121 2.07051C10.1282 2.07512 5.74433 2.07397 1.36042 2.07282C1.18862 2.07282 1.01335 2.07051 0.846162 2.03707C0.312299 1.93099 -0.0370759 1.47208 0.00328094 0.952049C0.0436378 0.429717 0.452971 0.0296077 1.00067 0.0100058C1.47458 -0.00728996 1.94963 0.00308751 2.42354 0.00308751C4.26381 0.00308751 6.10293 0.00308751 7.9432 0.00308751L7.94205 0.00193446Z" fill="#2A2A2A"></path>
                        <path d="M21.7501 17.5479C19.5363 17.5479 17.3236 17.5491 15.1097 17.5456C14.9102 17.5456 14.7015 17.5456 14.5136 17.4903C14.0927 17.368 13.8079 16.9449 13.8137 16.5067C13.8194 16.0639 14.1066 15.6604 14.5401 15.5462C14.758 15.4886 14.9944 15.4782 15.2216 15.4782C19.5766 15.4747 23.9317 15.4747 28.2868 15.4782C28.5001 15.4782 28.7215 15.4851 28.9267 15.5358C29.4156 15.6558 29.727 16.1077 29.6889 16.5966C29.6485 17.1086 29.2588 17.5122 28.7353 17.5375C28.2626 17.5606 27.7875 17.5479 27.3125 17.5479C25.4584 17.5479 23.6042 17.5479 21.7501 17.5479Z" fill="#2A2A2A"></path>
                    </svg>