<svg class="overflow-visible" width="20%" viewBox="0 0 43 43" fill="none" xmlns="http://www.w3.org/2000/svg">
                                            <path d="M43 21.5C43 33.3741 33.3741 43 21.5 43C9.62588 43 0 33.3741 0 21.5C0 9.62588 9.62588 0 21.5 0C33.3741 0 43 9.62588 43 21.5Z" fill="white"></path>
                                            <path d="M33.7718 20.3137L24.7682 11.3101L22.2353 13.8429L23.7588 15.3664C25.028 16.6356 26.7473 17.347 28.5415 17.347H28.6531C29.472 17.347 30.1358 18.0108 30.1358 18.8297C30.1358 19.6322 29.4978 20.2838 28.702 20.3096L28.7048 20.3124L6.64258 20.3124V23.894H19.6535C19.6889 23.8912 19.7243 23.8885 19.761 23.8885L28.6041 23.8885C29.4203 23.8885 30.1208 24.5278 30.1358 25.344C30.1507 26.1602 29.4815 26.8553 28.6531 26.8553H28.566C26.7718 26.8553 25.0511 27.568 23.7833 28.8358L22.2353 30.3838L24.7682 32.918L33.7813 23.9048L33.9037 23.7742C34.7784 22.8411 34.7784 21.3897 33.9037 20.4566L33.7718 20.3151V20.3137Z" fill="black"></path>
                                        </svg>